<svg width="67" height="67" viewBox="0 0 67 67" fill="none" xmlns="http://www.w3.org/2000/svg">
<circle cx="2" cy="2" r="2" transform="matrix(-1 -8.74228e-08 -8.74228e-08 1 32 8)" fill="white" fill-opacity="0.05"/>
<circle cx="2" cy="2" r="2" transform="matrix(-1 -8.74228e-08 -8.74228e-08 1 18 8)" fill="white" fill-opacity="0.05"/>
<circle cx="2" cy="2" r="2" transform="matrix(-1 -8.74228e-08 -8.74228e-08 1 4 8)" fill="white" fill-opacity="0.05"/>
<circle cx="2" cy="2" r="2" transform="matrix(-4.37114e-08 1 1 4.37114e-08 55 35)" fill="white" fill-opacity="0.05"/>
<circle cx="2" cy="2" r="2" transform="matrix(-4.37114e-08 1 1 4.37114e-08 55 49)" fill="white" fill-opacity="0.05"/>
<circle cx="2" cy="2" r="2" transform="matrix(-4.37114e-08 1 1 4.37114e-08 55 63)" fill="white" fill-opacity="0.05"/>
<circle cx="10" cy="10" r="9" transform="matrix(-1 0 0 1 67 0)" stroke="white" stroke-opacity="0.05" stroke-width="2"/>
<line y1="-1" x2="8" y2="-1" transform="matrix(0 1 1 0 58 6)" stroke="white" stroke-opacity="0.05" stroke-width="2"/>
<line y1="-1" x2="3" y2="-1" transform="matrix(-1 0 0 1 61 11)" stroke="white" stroke-opacity="0.05" stroke-width="2"/>
<line y1="-1" x2="3" y2="-1" transform="matrix(-1 0 0 1 56 11)" stroke="white" stroke-opacity="0.05" stroke-width="2"/>
</svg>
