<svg width="67" height="67" viewBox="0 0 67 67" fill="none" xmlns="http://www.w3.org/2000/svg">
<circle cx="2" cy="2" r="2" transform="matrix(1 8.74228e-08 8.74228e-08 -1 35 59)" fill="white" fill-opacity="0.05"/>
<circle cx="2" cy="2" r="2" transform="matrix(1 8.74228e-08 8.74228e-08 -1 49 59)" fill="white" fill-opacity="0.05"/>
<circle cx="2" cy="2" r="2" transform="matrix(1 8.74228e-08 8.74228e-08 -1 63 59)" fill="white" fill-opacity="0.05"/>
<circle cx="2" cy="2" r="2" transform="matrix(4.37114e-08 -1 -1 -4.37114e-08 12 32)" fill="white" fill-opacity="0.05"/>
<circle cx="2" cy="2" r="2" transform="matrix(4.37114e-08 -1 -1 -4.37114e-08 12 18)" fill="white" fill-opacity="0.05"/>
<circle cx="2" cy="2" r="2" transform="matrix(4.37114e-08 -1 -1 -4.37114e-08 12 4)" fill="white" fill-opacity="0.05"/>
<circle cx="10" cy="57" r="9" stroke="white" stroke-opacity="0.05" stroke-width="2"/>
<line x1="10" y1="53" x2="10" y2="61" stroke="white" stroke-opacity="0.05" stroke-width="2"/>
<line x1="6" y1="57" x2="9" y2="57" stroke="white" stroke-opacity="0.05" stroke-width="2"/>
<line x1="11" y1="57" x2="14" y2="57" stroke="white" stroke-opacity="0.05" stroke-width="2"/>
</svg>
