<svg width="26" height="30" viewBox="0 0 26 30" fill="none" xmlns="http://www.w3.org/2000/svg">
<mask id="path-1-inside-1_147_1502" fill="white">
<path d="M16 2.28882e-05H20C23.3137 2.28882e-05 26 2.68631 26 6.00002V24C26 27.3137 23.3137 30 20 30H16V2.28882e-05Z"/>
</mask>
<path d="M16 -0.999977H20C23.866 -0.999977 27 2.13403 27 6.00002H25C25 3.2386 22.7614 1.00002 20 1.00002H16V-0.999977ZM27 24C27 27.866 23.866 31 20 31H16V29H20C22.7614 29 25 26.7614 25 24H27ZM16 30V2.28882e-05V30ZM20 -0.999977C23.866 -0.999977 27 2.13403 27 6.00002V24C27 27.866 23.866 31 20 31V29C22.7614 29 25 26.7614 25 24V6.00002C25 3.2386 22.7614 1.00002 20 1.00002V-0.999977Z" fill="white" fill-opacity="0.2" mask="url(#path-1-inside-1_147_1502)"/>
<line x1="10" y1="0.500023" y2="0.500023" stroke="url(#paint0_linear_147_1502)"/>
<line x1="8.74228e-08" y1="29.5" x2="10" y2="29.5" stroke="url(#paint1_linear_147_1502)"/>
<defs>
<linearGradient id="paint0_linear_147_1502" x1="7.98609e-09" y1="0.500023" x2="10" y2="0.500022" gradientUnits="userSpaceOnUse">
<stop stop-color="white" stop-opacity="0"/>
<stop offset="1" stop-color="white" stop-opacity="0.2"/>
</linearGradient>
<linearGradient id="paint1_linear_147_1502" x1="0" y1="29.5" x2="10" y2="29.5" gradientUnits="userSpaceOnUse">
<stop stop-color="white" stop-opacity="0"/>
<stop offset="1" stop-color="white" stop-opacity="0.2"/>
</linearGradient>
</defs>
</svg>
